<svg id="bell" width="23" height="23" viewBox="0 0 23 23" xmlns="http://www.w3.org/2000/svg">
<path d="M20.1775 13.669L18.6898 12.1812C18.348 11.8133 18.15 11.3347 18.1319 10.8329V7.90385C18.1319 4.13794 15.6212 0.929932 11.1579 0.929932C6.69463 0.929932 4.18402 4.04495 4.18402 7.90385V11.1583C4.17541 11.4527 4.05968 11.7337 3.85857 11.9487L2.13833 13.669C1.96313 13.8406 1.86287 14.0746 1.85938 14.3199V17.6673C1.85938 17.914 1.95734 18.1505 2.13172 18.3249C2.30611 18.4992 2.54262 18.5972 2.78923 18.5972H7.94993C8.0793 19.3543 8.47229 20.0413 9.05939 20.5366C9.64648 21.0319 10.3898 21.3036 11.1579 21.3036C11.926 21.3036 12.6694 21.0319 13.2565 20.5366C13.8436 20.0413 14.2366 19.3543 14.3659 18.5972H19.5266C19.7733 18.5972 20.0098 18.4992 20.1842 18.3249C20.3585 18.1505 20.4565 17.914 20.4565 17.6673V14.3199C20.453 14.0746 20.3527 13.8406 20.1775 13.669Z" />
</svg>
