<svg id="folders" width="32" height="23" viewBox="0 0 32 23" xmlns="http://www.w3.org/2000/svg">
<path d="M6.33514 3.38771H1.12404C0.525248 3.38771 -0.0735428 3.90558 0.00737495 4.74713L2.53201 20.9145C2.53201 20.9145 5.52596 9.0034 6.10857 6.13891C6.28659 5.28118 7.09577 5.00606 7.69456 5.00606H16.0453C16.0453 5.00606 14.9124 1.63989 14.7991 1.26767C14.6049 0.55559 14.2489 0.151001 13.5368 0.151001H8.18006C7.59746 0.151001 7.04722 0.523223 6.88538 1.18675C6.73973 1.83409 6.33514 3.38771 6.33514 3.38771ZM14.2327 3.38771H7.75929C7.75929 3.38771 8.439 1.76936 9.16726 1.76936H12.6144C13.3912 1.76936 14.2327 3.38771 14.2327 3.38771ZM4.18273 21.5942C3.68104 22.3548 2.95278 22.808 2.1436 22.808H27.6003C28.4742 22.808 29.0892 22.3063 29.2672 21.4647C29.9793 17.9205 31.9861 7.80582 31.9861 7.80582C32.0993 6.99664 31.5005 6.62442 30.9827 6.62442H25.7554V4.24544C25.7554 3.9865 25.3346 3.38771 24.6873 3.38771H18.6023C17.7607 3.38771 17.1943 4.32635 17.1943 4.32635L16.0453 6.62442H8.90832C8.39045 6.62442 7.88876 6.9319 7.79166 7.43359C7.79166 7.43359 5.21848 18.2766 5.00809 19.2961C4.8948 19.8949 4.65205 20.8983 4.18273 21.5942ZM24.752 6.62442H17.6636C17.6636 6.62442 18.6023 5.00606 19.4924 5.00606H23.1984C24.3474 5.00606 24.752 6.62442 24.752 6.62442Z" />
</svg>
