<svg id="hat" width="27" height="18" viewBox="0 0 27 18"  xmlns="http://www.w3.org/2000/svg">
<path d="M13.0391 12.7916C12.5007 12.7916 11.9738 12.691 11.4731 12.4927L4.93164 9.89943C4.93164 11.3442 4.93164 13.5048 4.93164 14.0806C4.93164 16.1098 8.56127 17.7543 13.0393 17.7543C17.5172 17.7543 21.1473 16.1098 21.1473 14.0806V9.89929L14.6052 12.4927C14.1044 12.691 13.5775 12.7916 13.0391 12.7916Z" />
<path d="M25.6343 5.66315L14.1611 1.11528C13.4406 0.829717 12.638 0.829717 11.9173 1.11528L0.444249 5.66315C0.176029 5.76942 0 6.02878 0 6.31721C0 6.60577 0.17616 6.86499 0.444249 6.97139L2.05031 7.60797V12.162C1.69355 12.4052 1.45924 12.8148 1.45924 13.2792C1.45924 13.7045 1.65586 14.0838 1.96294 14.3316L1.47384 16.6796C1.40825 16.9946 1.48792 17.3226 1.69107 17.5721C1.8941 17.8218 2.19882 17.9667 2.5205 17.9667H3.10064C3.42245 17.9667 3.72704 17.8218 3.93007 17.5721C4.13309 17.3226 4.21276 16.9946 4.1473 16.6796L3.65806 14.3316C3.96526 14.0838 4.1619 13.7044 4.1619 13.2792C4.1619 12.8147 3.92759 12.4052 3.57083 12.162V8.21065L11.8807 11.5049C12.625 11.8 13.4536 11.8 14.1979 11.5049L25.6346 6.97139C25.9028 6.86512 26.0789 6.60577 26.0789 6.31721C26.0787 6.02878 25.9026 5.76942 25.6343 5.66315Z" />
</svg>
