<svg id="svg" version="1.1" xmlns="http://www.w3.org/2000/svg" xmlns:xlink="http://www.w3.org/1999/xlink" width="400" height="201.58940397350992" viewBox="0, 0, 400,201.58940397350992"><g id="svgg"><path id="path0" d="M139.365 13.861 C 80.318 13.898,58.871 13.972,58.871 14.137 C 58.871 14.268,58.661 14.321,58.367 14.265 C 58.090 14.212,57.863 14.237,57.863 14.320 C 57.863 14.403,57.545 14.531,57.157 14.604 C 56.769 14.676,56.452 14.803,56.452 14.884 C 56.452 14.966,55.772 15.347,54.942 15.732 C 54.112 16.117,53.431 16.505,53.430 16.595 C 53.428 16.684,53.337 16.702,53.226 16.633 C 53.115 16.565,53.024 16.590,53.024 16.690 C 53.024 16.789,52.661 16.991,52.218 17.137 C 51.774 17.283,51.411 17.489,51.411 17.594 C 51.411 17.699,51.275 17.733,51.109 17.669 C 50.943 17.605,50.806 17.639,50.806 17.744 C 50.806 17.850,50.580 17.993,50.302 18.062 C 50.025 18.132,49.798 18.264,49.798 18.356 C 49.798 18.447,49.481 18.637,49.093 18.777 C 48.705 18.918,48.387 19.101,48.387 19.186 C 48.387 19.270,48.024 19.447,47.581 19.580 C 47.137 19.713,46.774 19.904,46.774 20.003 C 46.774 20.103,46.683 20.129,46.573 20.060 C 46.462 19.992,46.371 20.012,46.371 20.105 C 46.371 20.256,45.339 20.738,45.027 20.734 C 44.959 20.733,44.848 20.816,44.781 20.919 C 44.648 21.121,44.487 21.210,41.793 22.564 C 40.818 23.055,39.994 23.437,39.963 23.414 C 39.931 23.391,39.766 23.512,39.595 23.682 C 39.425 23.853,39.156 23.992,38.998 23.992 C 38.839 23.992,38.710 24.064,38.710 24.151 C 38.710 24.239,37.939 24.669,36.996 25.107 C 36.053 25.545,35.282 25.982,35.282 26.078 C 35.282 26.174,35.146 26.201,34.980 26.137 C 34.814 26.073,34.677 26.107,34.677 26.212 C 34.677 26.317,34.451 26.461,34.173 26.530 C 33.896 26.600,33.669 26.730,33.669 26.821 C 33.669 26.911,33.352 27.090,32.964 27.218 C 32.576 27.346,32.258 27.520,32.258 27.604 C 32.258 27.689,31.895 27.878,31.452 28.024 C 31.008 28.171,30.645 28.372,30.645 28.472 C 30.645 28.571,30.554 28.597,30.444 28.528 C 30.333 28.460,30.242 28.480,30.242 28.573 C 30.242 28.724,29.210 29.206,28.898 29.201 C 28.830 29.200,28.719 29.275,28.651 29.368 C 28.391 29.721,26.794 30.455,26.577 30.320 C 26.443 30.238,26.405 30.270,26.484 30.398 C 26.560 30.520,26.419 30.679,26.162 30.759 C 25.911 30.837,25.660 30.957,25.605 31.025 C 25.435 31.235,22.288 32.757,22.127 32.707 C 22.044 32.682,21.976 32.742,21.976 32.841 C 21.976 32.940,21.749 33.078,21.472 33.147 C 21.195 33.217,20.968 33.356,20.968 33.456 C 20.968 33.556,20.628 33.749,20.212 33.885 C 19.796 34.020,19.410 34.196,19.355 34.275 C 19.299 34.354,18.564 34.749,17.721 35.153 C 16.302 35.832,15.699 36.278,14.919 37.224 C 14.655 37.545,14.303 112.508,14.565 112.750 C 14.594 112.776,23.916 112.844,35.282 112.901 L 55.948 113.004 55.995 144.355 C 56.030 167.414,56.104 175.822,56.274 176.145 C 56.400 176.386,56.458 176.828,56.401 177.126 C 56.328 177.508,56.424 177.795,56.727 178.098 L 57.157 178.528 204.695 178.528 C 330.723 178.528,352.258 178.487,352.406 178.247 C 352.502 178.092,352.725 178.021,352.903 178.089 C 353.081 178.157,353.226 178.132,353.226 178.034 C 353.226 177.935,353.498 177.795,353.831 177.722 C 354.163 177.649,354.435 177.524,354.435 177.444 C 354.435 177.364,354.772 177.177,355.184 177.028 C 355.596 176.879,356.061 176.629,356.218 176.472 C 356.375 176.315,356.633 176.236,356.790 176.297 C 356.949 176.358,357.022 176.318,356.954 176.207 C 356.886 176.098,356.966 176.008,357.131 176.008 C 357.296 176.008,357.554 175.885,357.705 175.734 C 357.855 175.584,358.315 175.339,358.727 175.190 C 359.139 175.041,359.476 174.858,359.476 174.782 C 359.476 174.707,359.771 174.526,360.131 174.381 C 360.491 174.235,360.832 174.053,360.887 173.976 C 360.997 173.823,362.288 173.257,362.578 173.234 C 362.677 173.226,362.813 173.135,362.881 173.032 C 363.017 172.825,363.911 172.319,364.768 171.964 C 365.073 171.838,365.323 171.648,365.323 171.541 C 365.323 171.434,365.407 171.399,365.510 171.463 C 365.613 171.527,365.756 171.485,365.827 171.371 C 365.897 171.256,366.040 171.215,366.143 171.279 C 366.246 171.343,366.331 171.309,366.331 171.203 C 366.331 171.098,366.557 170.955,366.835 170.885 C 367.112 170.815,367.339 170.676,367.339 170.576 C 367.339 170.476,367.656 170.289,368.044 170.161 C 368.432 170.033,368.750 169.859,368.750 169.775 C 368.750 169.690,369.113 169.501,369.556 169.355 C 370.000 169.208,370.363 169.020,370.363 168.935 C 370.363 168.850,370.680 168.676,371.069 168.548 C 371.457 168.420,371.774 168.246,371.774 168.160 C 371.774 167.996,373.381 167.264,373.639 167.311 C 373.722 167.326,373.790 167.242,373.790 167.124 C 373.790 166.993,373.970 166.963,374.244 167.048 C 374.493 167.124,374.629 167.115,374.545 167.026 C 374.356 166.827,375.099 166.322,376.815 165.482 C 377.535 165.129,378.245 164.722,378.391 164.578 C 378.538 164.433,378.781 164.315,378.931 164.315 C 379.082 164.315,379.325 164.197,379.471 164.054 C 379.618 163.911,380.055 163.666,380.444 163.511 C 380.832 163.356,381.195 163.166,381.250 163.089 C 381.383 162.904,382.920 162.227,383.115 162.267 C 383.198 162.284,383.266 162.198,383.266 162.075 C 383.266 161.952,383.407 161.906,383.579 161.972 C 383.758 162.041,383.839 162.007,383.769 161.893 C 383.701 161.783,383.781 161.694,383.945 161.694 C 384.110 161.694,384.365 161.580,384.512 161.442 C 384.796 161.173,386.207 160.479,386.420 160.504 C 386.490 160.512,386.603 160.443,386.671 160.350 C 386.807 160.164,388.158 159.421,390.625 158.174 C 391.512 157.726,392.268 157.290,392.306 157.206 C 392.343 157.123,392.456 157.105,392.558 157.168 C 392.659 157.231,392.742 157.192,392.742 157.082 C 392.742 156.972,392.942 156.818,393.187 156.741 C 393.741 156.565,395.136 155.132,395.382 154.487 C 395.679 153.705,395.621 80.177,395.323 79.879 C 395.135 79.692,375.677 79.637,308.972 79.637 C 242.267 79.637,222.808 79.583,222.621 79.395 C 222.435 79.209,222.379 71.711,222.379 46.873 C 222.379 10.144,222.556 13.651,220.708 13.760 C 220.241 13.787,183.637 13.833,139.365 13.861 M218.661 17.625 C 219.045 17.906,219.053 18.503,219.105 50.387 L 219.157 82.862 305.697 82.913 L 392.238 82.964 392.297 117.238 C 392.336 140.088,392.287 151.750,392.150 152.226 C 391.873 153.188,391.152 153.821,389.113 154.895 C 388.170 155.391,386.492 156.274,385.383 156.858 C 380.557 159.397,379.865 159.763,378.528 160.481 C 377.752 160.897,376.210 161.715,375.101 162.298 C 372.240 163.802,367.584 166.271,365.020 167.643 C 364.355 167.999,362.631 168.904,361.190 169.655 C 358.227 171.198,357.096 171.812,354.611 173.226 C 353.654 173.771,352.293 174.415,351.586 174.658 L 350.302 175.100 205.417 175.152 C 62.916 175.202,60.523 175.197,60.054 174.817 L 59.577 174.431 59.476 142.004 L 59.375 109.577 38.659 109.525 L 17.944 109.474 17.893 78.678 C 17.865 61.741,17.843 46.205,17.844 44.153 C 17.845 39.068,17.816 39.114,22.681 36.592 C 24.345 35.730,26.658 34.525,27.823 33.915 C 28.987 33.304,30.892 32.309,32.056 31.702 C 35.350 29.986,38.639 28.263,40.625 27.214 C 41.623 26.687,43.528 25.690,44.859 24.999 C 46.190 24.307,48.095 23.311,49.093 22.785 C 55.353 19.488,58.615 17.899,59.629 17.653 C 61.387 17.227,218.079 17.199,218.661 17.625 M82.866 24.597 L 64.824 24.698 64.590 25.202 C 64.241 25.955,64.513 80.522,64.868 80.877 C 65.007 81.015,65.642 81.193,66.280 81.273 C 67.830 81.466,211.442 81.494,211.562 81.300 C 211.835 80.858,211.944 25.090,211.672 24.874 C 211.358 24.625,115.023 24.417,82.866 24.597 M52.722 28.796 C 51.280 29.549,48.921 30.784,47.480 31.541 C 46.038 32.299,43.906 33.416,42.742 34.025 C 41.578 34.634,40.171 35.381,39.617 35.686 C 39.063 35.990,37.157 36.988,35.383 37.904 C 33.609 38.820,31.885 39.727,31.552 39.920 C 31.220 40.112,29.859 40.836,28.528 41.527 C 27.198 42.219,25.859 43.019,25.554 43.305 L 25.000 43.825 25.000 71.498 C 25.000 89.549,25.069 99.213,25.200 99.293 C 25.360 99.392,31.187 96.524,31.956 95.968 C 32.067 95.887,33.246 95.252,34.577 94.556 C 35.907 93.860,38.311 92.591,39.919 91.735 C 44.118 89.500,46.181 88.416,50.476 86.189 C 54.471 84.117,55.548 83.303,55.743 82.211 C 55.956 81.014,55.762 27.559,55.544 27.491 C 55.433 27.456,54.163 28.044,52.722 28.796 M134.577 35.282 L 134.577 39.819 114.012 39.919 C 93.861 40.018,93.434 40.028,92.757 40.426 C 90.663 41.656,90.617 45.565,92.680 46.976 L 93.418 47.480 109.562 47.591 C 127.713 47.716,127.000 47.656,129.970 49.289 C 139.573 54.567,138.220 69.183,127.813 72.599 C 125.480 73.366,124.430 73.397,103.125 73.341 L 82.359 73.286 82.359 68.851 L 82.359 64.415 103.040 64.315 L 123.721 64.214 124.433 63.671 C 126.420 62.155,126.281 58.395,124.193 57.168 C 123.502 56.762,123.168 56.752,107.359 56.643 C 90.464 56.527,91.000 56.557,88.508 55.602 C 78.130 51.626,77.933 36.245,88.206 32.003 C 91.336 30.710,91.658 30.694,114.415 30.722 L 134.577 30.746 134.577 35.282 M193.905 35.333 L 193.959 39.919 183.472 39.919 L 172.984 39.919 172.984 56.653 L 172.984 73.387 167.540 73.387 L 162.097 73.387 162.097 56.655 L 162.097 39.923 151.663 39.871 L 141.230 39.819 141.175 35.489 C 141.145 33.108,141.165 31.043,141.220 30.901 C 141.299 30.694,146.409 30.654,167.585 30.695 L 193.851 30.746 193.905 35.333 M52.217 56.804 C 52.216 85.413,52.562 82.042,49.466 83.606 C 48.374 84.159,44.336 86.213,40.493 88.172 C 36.650 90.131,33.362 91.734,33.185 91.734 C 32.892 91.734,32.863 89.803,32.863 70.471 C 32.863 45.603,33.084 47.965,30.533 45.606 C 29.708 44.843,29.032 44.164,29.032 44.098 C 29.032 43.947,31.844 42.457,42.843 36.780 C 45.171 35.578,48.075 34.074,49.294 33.437 C 50.514 32.801,51.671 32.275,51.865 32.269 C 52.199 32.259,52.218 33.557,52.217 56.804 M105.944 90.456 C 105.533 90.867,105.487 146.078,105.897 146.637 C 106.212 147.065,384.294 147.176,384.809 146.749 C 385.034 146.562,385.081 141.798,385.081 118.730 L 385.081 90.937 384.627 90.652 C 383.922 90.210,106.385 90.015,105.944 90.456 M170.363 102.520 L 170.363 107.056 149.876 107.056 L 129.390 107.056 128.606 107.497 C 126.385 108.745,126.412 112.896,128.650 114.214 C 129.315 114.605,129.796 114.620,145.565 114.722 L 161.794 114.826 163.306 115.349 C 174.383 119.174,175.412 134.374,164.919 139.161 C 161.898 140.539,162.295 140.519,139.063 140.522 L 118.145 140.524 118.145 135.988 L 118.145 131.452 138.465 131.452 L 158.786 131.452 159.673 130.998 C 161.436 130.097,162.102 127.572,161.107 125.562 C 160.213 123.755,161.717 123.906,143.347 123.776 C 127.639 123.665,127.075 123.648,125.806 123.243 C 119.479 121.221,116.461 117.231,116.460 110.887 C 116.458 104.144,120.231 99.602,127.016 98.178 C 127.404 98.097,137.316 98.020,149.042 98.007 L 170.363 97.984 170.363 102.520 M188.911 107.535 C 188.911 117.911,189.036 119.183,190.323 121.922 C 190.545 122.393,190.726 122.836,190.726 122.907 C 190.726 123.182,192.428 125.547,193.219 126.373 C 200.664 134.136,215.935 132.753,221.138 123.843 C 223.366 120.029,223.589 118.511,223.589 107.135 L 223.589 97.984 228.846 97.984 L 234.104 97.984 234.011 108.417 C 233.915 119.243,233.858 120.034,232.968 122.875 C 229.534 133.841,219.513 140.524,206.504 140.524 C 191.878 140.524,181.312 132.682,178.794 119.960 C 178.381 117.871,177.955 99.181,178.301 98.281 C 178.397 98.030,179.225 97.984,183.663 97.984 L 188.911 97.984 188.911 107.535 M252.218 119.257 L 252.218 140.531 247.026 140.477 L 241.835 140.423 241.783 119.456 C 241.754 107.923,241.774 98.374,241.827 98.236 C 241.900 98.043,243.138 97.984,247.070 97.984 L 252.218 97.984 252.218 119.257 M311.492 102.520 L 311.492 107.056 301.009 107.056 L 290.527 107.056 290.475 123.740 L 290.423 140.423 284.980 140.423 L 279.536 140.423 279.485 123.740 L 279.433 107.056 269.073 107.056 C 259.812 107.056,258.700 107.023,258.590 106.738 C 258.423 106.302,258.434 98.286,258.602 98.118 C 258.676 98.044,270.607 97.984,285.114 97.984 L 311.492 97.984 311.492 102.520 M370.565 102.520 L 370.565 107.056 349.395 107.056 L 328.226 107.056 328.226 110.886 L 328.226 114.715 344.405 114.767 L 360.585 114.819 360.642 118.851 C 360.673 121.069,360.649 123.087,360.588 123.337 L 360.476 123.790 344.351 123.790 L 328.226 123.790 328.226 127.621 L 328.226 131.452 349.395 131.452 L 370.565 131.452 370.565 135.989 L 370.565 140.526 344.204 140.475 L 317.843 140.423 317.791 119.204 L 317.740 97.984 344.152 97.984 L 370.565 97.984 370.565 102.520 M96.506 99.546 C 96.456 99.630,95.263 102.283,93.853 105.444 C 92.444 108.604,91.083 111.643,90.827 112.198 C 90.572 112.752,89.800 114.476,89.112 116.028 C 88.424 117.581,87.644 119.327,87.378 119.909 C 86.829 121.113,86.173 122.556,85.407 124.250 C 85.116 124.891,84.879 125.452,84.879 125.498 C 84.879 125.544,84.508 126.380,84.055 127.357 C 83.601 128.334,83.051 129.541,82.832 130.040 C 82.614 130.539,82.312 131.220,82.162 131.552 C 82.012 131.885,81.666 132.656,81.392 133.266 C 81.118 133.876,80.647 134.919,80.344 135.585 C 80.041 136.250,79.614 137.203,79.394 137.702 C 79.173 138.201,78.871 138.881,78.721 139.214 C 78.571 139.546,78.227 140.318,77.957 140.927 C 76.241 144.798,75.791 145.801,75.291 146.875 C 73.987 149.672,67.540 164.210,67.540 164.352 C 67.540 164.684,68.216 164.499,69.425 163.837 C 70.107 163.464,71.890 162.499,73.387 161.695 C 74.884 160.890,76.563 159.982,77.117 159.677 C 78.571 158.878,89.790 152.909,92.641 151.418 C 95.964 149.680,96.342 149.434,96.644 148.821 C 96.854 148.392,96.917 143.442,96.959 123.841 C 97.009 100.797,96.971 98.769,96.506 99.546 " stroke="none" fill="#040404" fill-rule="evenodd"></path><path id="path1" d="M59.173 18.028 C 58.397 18.286,57.127 18.838,56.351 19.254 C 55.024 19.965,53.730 20.637,46.270 24.493 C 44.607 25.352,43.155 26.123,43.044 26.205 C 42.933 26.287,41.164 27.217,39.113 28.272 C 37.061 29.326,34.793 30.507,34.073 30.895 C 33.352 31.282,31.129 32.440,29.133 33.467 C 27.137 34.494,25.141 35.539,24.698 35.790 C 24.254 36.040,22.893 36.760,21.673 37.389 C 18.160 39.200,18.044 39.423,18.044 44.355 C 18.044 46.074,18.067 61.395,18.095 78.403 L 18.145 109.326 38.578 109.250 C 55.682 109.186,59.065 109.218,59.344 109.450 C 59.652 109.705,59.677 112.214,59.677 141.922 C 59.677 169.408,59.719 174.174,59.964 174.508 C 60.246 174.895,61.948 174.899,205.175 174.899 L 350.101 174.899 351.512 174.419 C 352.288 174.155,353.851 173.405,354.984 172.753 C 356.118 172.101,357.252 171.475,357.504 171.363 C 357.757 171.251,358.780 170.725,359.778 170.194 C 363.707 168.102,365.478 167.158,366.734 166.481 C 367.455 166.093,368.838 165.357,369.808 164.844 C 370.779 164.331,372.366 163.492,373.337 162.979 C 374.307 162.466,375.736 161.705,376.512 161.289 C 377.288 160.872,378.876 160.035,380.040 159.428 C 381.205 158.822,382.883 157.937,383.770 157.463 C 384.657 156.988,386.517 156.014,387.903 155.298 C 391.073 153.661,391.662 153.216,391.926 152.264 C 392.066 151.759,392.135 140.310,392.136 117.389 L 392.137 83.266 305.657 83.266 C 236.694 83.266,219.144 83.215,219.014 83.014 C 218.924 82.876,218.851 68.237,218.851 50.485 C 218.851 23.424,218.806 18.154,218.574 17.874 C 218.317 17.565,212.571 17.541,139.441 17.549 L 60.585 17.558 59.173 18.028 M180.177 24.395 C 209.482 24.395,211.485 24.417,211.809 24.742 C 212.153 25.085,212.108 79.009,211.762 80.999 L 211.648 81.655 138.536 81.604 C 60.228 81.549,64.692 81.606,64.429 80.646 C 64.181 79.742,64.227 25.007,64.476 24.758 C 64.817 24.417,91.180 24.228,124.899 24.325 C 138.095 24.364,162.970 24.395,180.177 24.395 M55.922 27.378 C 56.241 27.894,56.098 82.182,55.776 82.805 C 55.330 83.668,54.282 84.474,52.218 85.542 C 47.018 88.233,43.988 89.821,40.020 91.934 C 36.664 93.721,35.090 94.554,32.056 96.149 C 30.338 97.053,28.795 97.876,28.629 97.979 C 27.507 98.674,25.360 99.623,25.120 99.531 C 24.604 99.333,24.577 97.697,24.638 70.630 C 24.706 40.244,24.496 43.387,26.529 42.325 C 27.074 42.041,28.337 41.374,29.335 40.842 C 31.353 39.768,34.201 38.264,37.097 36.744 C 40.543 34.935,43.012 33.636,44.960 32.608 C 46.013 32.052,48.191 30.912,49.798 30.073 C 51.406 29.235,53.266 28.256,53.931 27.899 C 55.157 27.240,55.742 27.087,55.922 27.378 M91.835 31.181 C 85.901 32.440,82.552 35.389,81.236 40.515 C 79.443 47.498,83.518 54.315,90.490 55.998 C 91.645 56.276,94.086 56.338,107.762 56.437 C 120.803 56.532,123.779 56.603,124.181 56.832 C 126.687 58.256,126.747 62.655,124.279 64.059 L 123.488 64.509 103.075 64.513 L 82.661 64.516 82.661 68.859 L 82.661 73.203 103.982 73.127 C 124.965 73.053,126.351 73.011,127.722 72.405 C 133.870 69.689,135.990 66.578,135.986 60.282 C 135.982 54.827,134.023 51.599,129.234 49.159 C 128.624 48.848,127.989 48.589,127.823 48.582 C 127.656 48.576,127.157 48.421,126.714 48.239 C 125.996 47.943,124.117 47.894,109.561 47.794 L 93.214 47.681 92.474 47.117 C 90.119 45.320,90.568 40.927,93.209 39.932 C 93.595 39.786,100.266 39.718,114.126 39.718 L 134.476 39.718 134.476 35.383 L 134.476 31.048 113.357 31.072 C 101.741 31.085,92.056 31.134,91.835 31.181 M141.331 35.381 L 141.331 39.714 151.764 39.766 L 162.198 39.819 162.249 56.505 L 162.301 73.192 167.491 73.138 L 172.681 73.085 172.733 56.401 L 172.785 39.718 183.267 39.718 L 193.750 39.718 193.750 35.383 L 193.750 31.048 167.540 31.048 L 141.331 31.048 141.331 35.381 M49.294 33.664 C 45.387 35.733,40.291 38.374,32.575 42.330 L 29.250 44.035 30.835 45.556 C 33.123 47.751,32.932 45.529,32.949 70.094 C 32.957 81.755,33.031 91.364,33.113 91.446 C 33.195 91.528,34.692 90.873,36.440 89.990 C 47.185 84.559,50.965 82.576,51.411 82.138 L 51.915 81.644 51.915 57.119 C 51.915 40.938,51.847 32.576,51.714 32.542 C 51.603 32.513,50.514 33.018,49.294 33.664 M384.006 90.240 C 384.468 90.296,384.943 90.459,385.061 90.602 C 385.453 91.074,385.371 146.570,384.978 146.963 C 384.520 147.421,106.562 147.551,105.936 147.093 C 105.304 146.631,105.213 90.807,105.843 90.289 C 106.241 89.963,381.323 89.914,384.006 90.240 M127.117 98.408 C 122.171 99.114,117.801 103.169,116.926 107.863 C 115.767 114.085,118.116 119.389,123.174 121.970 C 125.865 123.343,124.585 123.251,142.757 123.375 L 159.203 123.488 160.020 124.029 C 162.467 125.648,162.473 129.860,160.031 131.194 C 159.418 131.529,158.027 131.559,138.810 131.653 L 118.246 131.754 118.192 136.047 L 118.137 140.340 139.764 140.271 L 161.391 140.202 162.903 139.688 C 167.066 138.272,169.621 135.977,171.065 132.359 C 171.933 130.182,172.012 123.960,171.185 122.887 C 171.097 122.774,170.927 122.388,170.807 122.029 C 170.072 119.843,167.087 117.066,164.315 115.988 C 161.257 114.798,159.930 114.718,143.442 114.718 L 128.890 114.718 128.223 114.264 C 126.348 112.990,126.135 109.228,127.854 107.762 C 128.959 106.819,128.100 106.855,149.695 106.855 L 170.161 106.855 170.161 102.520 L 170.161 98.185 149.244 98.210 C 137.739 98.224,127.782 98.312,127.117 98.408 M178.679 108.720 L 178.755 119.254 179.278 121.169 C 182.650 133.509,192.126 140.166,206.351 140.190 C 219.520 140.211,228.940 134.138,232.568 123.286 C 233.716 119.852,233.871 117.990,233.871 107.671 L 233.871 98.185 228.831 98.185 L 223.790 98.185 223.790 106.762 C 223.790 118.186,223.552 120.011,221.598 123.532 C 220.418 125.657,217.101 129.024,216.179 129.030 C 216.041 129.031,215.927 129.107,215.927 129.198 C 215.927 129.814,211.281 131.227,208.400 131.487 C 201.994 132.066,196.765 130.387,193.107 126.576 C 192.088 125.513,190.123 122.543,190.120 122.059 C 190.119 121.958,189.986 121.620,189.823 121.309 C 188.834 119.412,188.530 115.872,188.518 106.099 L 188.508 98.185 183.556 98.185 L 178.603 98.185 178.679 108.720 M242.137 119.254 L 242.137 140.323 247.077 140.323 L 252.016 140.323 252.016 119.254 L 252.016 98.185 247.077 98.185 L 242.137 98.185 242.137 119.254 M258.871 102.518 L 258.871 106.851 269.304 106.903 L 279.738 106.956 279.789 123.639 L 279.841 140.323 285.082 140.323 L 290.323 140.323 290.323 123.591 L 290.323 106.858 300.756 106.806 L 311.190 106.754 311.244 102.470 L 311.298 98.185 285.085 98.185 L 258.871 98.185 258.871 102.518 M317.944 119.254 L 317.944 140.323 344.254 140.323 L 370.565 140.323 370.565 135.989 L 370.565 131.655 349.345 131.604 L 328.125 131.552 328.125 127.520 L 328.125 123.488 344.304 123.436 L 360.484 123.385 360.484 119.051 L 360.484 114.718 344.254 114.718 L 328.024 114.718 328.024 110.786 L 328.024 106.855 349.294 106.855 L 370.565 106.855 370.565 102.520 L 370.565 98.185 344.254 98.185 L 317.944 98.185 317.944 119.254 M97.022 123.034 C 97.048 136.147,97.067 147.304,97.064 147.828 C 97.058 149.082,96.522 149.637,94.098 150.899 C 93.075 151.432,91.603 152.207,90.827 152.621 C 90.050 153.036,88.599 153.808,87.601 154.337 C 86.603 154.867,85.197 155.617,84.476 156.005 C 83.755 156.392,82.530 157.046,81.754 157.457 C 77.821 159.540,76.662 160.162,76.109 160.484 C 75.529 160.822,74.765 161.231,70.236 163.634 C 68.113 164.760,67.600 164.907,67.422 164.441 C 67.337 164.220,71.497 154.624,74.644 147.782 C 75.504 145.912,75.837 145.163,77.022 142.440 C 77.601 141.109,78.193 139.793,78.336 139.516 C 78.480 139.239,78.786 138.581,79.017 138.054 C 79.247 137.528,79.609 136.711,79.820 136.240 C 80.032 135.769,80.520 134.657,80.906 133.770 C 81.291 132.883,81.940 131.431,82.347 130.544 C 83.183 128.721,83.451 128.128,84.053 126.764 C 84.796 125.080,85.225 124.120,85.740 122.984 C 87.107 119.972,87.298 119.538,87.298 119.457 C 87.298 119.409,87.605 118.709,87.981 117.901 C 89.076 115.543,89.833 113.867,90.946 111.341 C 91.339 110.450,91.843 109.331,92.743 107.359 C 92.945 106.915,93.300 106.121,93.531 105.595 C 94.804 102.696,95.753 100.599,96.132 99.849 C 96.981 98.167,96.973 97.979,97.022 123.034 " stroke="none" fill="#fbfbfb" fill-rule="evenodd"></path><path id="path2" d="M64.264 13.860 C 65.179 13.897,66.676 13.897,67.591 13.860 C 68.506 13.822,67.757 13.792,65.927 13.792 C 64.098 13.792,63.349 13.822,64.264 13.860 M218.702 13.852 C 218.953 13.900,219.316 13.899,219.508 13.848 C 219.701 13.798,219.496 13.758,219.052 13.761 C 218.609 13.763,218.451 13.804,218.702 13.852 M100.050 17.490 C 121.757 17.518,157.276 17.518,178.982 17.490 C 200.688 17.462,182.928 17.438,139.516 17.438 C 96.104 17.438,78.344 17.462,100.050 17.490 M219.051 50.605 L 219.052 82.964 305.676 83.065 C 353.319 83.120,392.258 83.097,392.207 83.014 C 392.155 82.931,353.198 82.863,305.634 82.863 L 219.154 82.863 219.103 50.554 L 219.051 18.246 219.051 50.605 M47.933 19.104 C 47.739 19.147,47.581 19.267,47.581 19.370 C 47.581 19.606,47.799 19.603,48.180 19.363 C 48.542 19.134,48.412 18.998,47.933 19.104 M43.459 21.478 C 43.244 21.641,42.899 21.774,42.692 21.774 C 42.484 21.774,42.366 21.856,42.428 21.957 C 42.590 22.219,43.262 22.000,43.667 21.552 C 44.079 21.098,44.000 21.069,43.459 21.478 M49.950 22.293 C 49.196 22.702,49.242 22.872,50.000 22.480 C 50.333 22.308,50.605 22.124,50.605 22.071 C 50.605 21.942,50.583 21.949,49.950 22.293 M41.583 22.423 C 41.333 22.544,41.129 22.722,41.129 22.820 C 41.129 22.989,41.465 22.845,42.137 22.389 C 42.532 22.121,42.163 22.144,41.583 22.423 M74.360 24.546 C 79.275 24.576,87.259 24.576,92.102 24.546 C 96.945 24.516,92.923 24.492,83.165 24.492 C 73.407 24.492,69.445 24.516,74.360 24.546 M152.486 24.546 C 163.334 24.575,181.025 24.575,191.800 24.546 C 202.575 24.518,193.700 24.494,172.077 24.494 C 150.454 24.494,141.638 24.518,152.486 24.546 M31.804 27.558 C 31.610 27.609,31.452 27.726,31.452 27.818 C 31.452 27.911,31.633 27.939,31.855 27.881 C 32.077 27.823,32.258 27.695,32.258 27.597 C 32.258 27.499,32.235 27.430,32.208 27.443 C 32.180 27.456,31.998 27.508,31.804 27.558 M101.310 30.794 C 120.368 30.932,134.630 30.933,134.546 30.796 C 134.494 30.713,125.362 30.667,114.252 30.693 C 103.142 30.719,97.319 30.765,101.310 30.794 M141.261 30.796 C 141.210 30.880,153.035 30.948,167.540 30.948 C 182.045 30.948,193.871 30.880,193.820 30.796 C 193.697 30.599,141.383 30.599,141.261 30.796 M25.151 30.986 C 24.957 31.036,24.798 31.154,24.798 31.246 C 24.798 31.338,24.980 31.366,25.202 31.308 C 25.423 31.250,25.605 31.123,25.605 31.025 C 25.605 30.927,25.582 30.857,25.554 30.870 C 25.527 30.883,25.345 30.935,25.151 30.986 M92.593 30.991 C 92.900 31.038,93.354 31.037,93.602 30.989 C 93.850 30.941,93.599 30.903,93.044 30.904 C 92.490 30.906,92.287 30.945,92.593 30.991 M23.595 31.847 C 23.431 31.950,23.347 32.084,23.408 32.144 C 23.468 32.205,23.692 32.122,23.906 31.960 C 24.331 31.638,24.073 31.545,23.595 31.847 M20.716 33.345 C 20.522 33.492,20.363 33.668,20.363 33.736 C 20.363 33.963,20.935 33.641,21.047 33.351 C 21.179 33.005,21.164 33.005,20.716 33.345 M84.054 34.829 C 83.258 35.665,82.228 36.935,82.787 36.391 C 83.387 35.806,85.127 33.871,85.052 33.871 C 85.004 33.871,84.555 34.302,84.054 34.829 M64.365 58.669 C 64.341 70.479,64.387 80.246,64.469 80.374 C 64.602 80.584,64.598 58.744,64.462 43.246 C 64.433 39.919,64.389 46.860,64.365 58.669 M18.941 38.861 L 18.246 39.617 19.002 38.922 C 19.418 38.540,19.758 38.200,19.758 38.166 C 19.758 38.012,19.587 38.157,18.941 38.861 M14.113 75.706 C 14.113 100.101,14.181 112.500,14.315 112.500 C 14.448 112.500,14.516 100.101,14.516 75.706 C 14.516 51.310,14.448 38.911,14.315 38.911 C 14.181 38.911,14.113 51.310,14.113 75.706 M36.442 40.035 C 35.688 40.444,35.734 40.614,36.492 40.222 C 36.825 40.050,37.097 39.866,37.097 39.813 C 37.097 39.684,37.075 39.691,36.442 40.035 M104.183 39.869 C 109.756 39.899,118.873 39.899,124.446 39.869 C 130.018 39.839,125.459 39.815,114.315 39.815 C 103.170 39.815,98.611 39.839,104.183 39.869 M146.536 39.869 C 149.455 39.900,154.173 39.900,157.020 39.869 C 159.868 39.837,157.480 39.811,151.714 39.811 C 145.948 39.812,143.618 39.837,146.536 39.869 M178.175 39.869 C 181.086 39.900,185.849 39.900,188.760 39.869 C 191.671 39.837,189.289 39.812,183.468 39.812 C 177.646 39.812,175.265 39.837,178.175 39.869 M17.825 44.556 C 17.825 46.497,17.855 47.291,17.892 46.321 C 17.929 45.350,17.929 43.763,17.892 42.792 C 17.855 41.822,17.825 42.616,17.825 44.556 M27.974 41.648 C 27.220 42.056,27.266 42.227,28.024 41.835 C 28.357 41.663,28.629 41.479,28.629 41.426 C 28.629 41.297,28.607 41.304,27.974 41.648 M80.720 43.750 C 80.720 44.914,80.753 45.391,80.794 44.808 C 80.835 44.226,80.835 43.274,80.794 42.692 C 80.753 42.109,80.720 42.586,80.720 43.750 M24.896 71.472 C 24.896 86.552,24.920 92.692,24.950 85.115 C 24.979 77.539,24.979 65.200,24.950 57.696 C 24.920 50.192,24.896 56.391,24.896 71.472 M31.149 46.169 C 31.582 46.613,31.982 46.976,32.037 46.976 C 32.093 46.976,31.784 46.613,31.351 46.169 C 30.918 45.726,30.518 45.363,30.463 45.363 C 30.407 45.363,30.716 45.726,31.149 46.169 M123.740 47.723 C 123.989 47.771,124.398 47.771,124.647 47.723 C 124.897 47.675,124.693 47.636,124.194 47.636 C 123.695 47.636,123.490 47.675,123.740 47.723 M132.258 50.870 C 132.258 50.904,132.553 51.199,132.913 51.525 L 133.569 52.117 132.976 51.462 C 132.424 50.851,132.258 50.714,132.258 50.870 M83.972 52.621 C 84.518 53.175,85.010 53.629,85.065 53.629 C 85.121 53.629,84.719 53.175,84.173 52.621 C 83.627 52.067,83.135 51.613,83.080 51.613 C 83.024 51.613,83.426 52.067,83.972 52.621 M211.788 67.137 C 211.788 73.402,211.813 75.965,211.845 72.833 C 211.876 69.700,211.876 64.574,211.845 61.442 C 211.813 58.309,211.788 60.872,211.788 67.137 M100.050 56.603 C 104.236 56.633,111.086 56.633,115.272 56.603 C 119.458 56.572,116.033 56.547,107.661 56.547 C 99.289 56.547,95.864 56.572,100.050 56.603 M136.135 58.468 C 136.135 58.856,136.177 59.015,136.228 58.821 C 136.278 58.627,136.278 58.309,136.228 58.115 C 136.177 57.921,136.135 58.080,136.135 58.468 M136.353 60.383 C 136.354 61.048,136.392 61.296,136.436 60.934 C 136.481 60.572,136.480 60.027,136.434 59.724 C 136.388 59.421,136.352 59.718,136.353 60.383 M55.941 70.867 C 55.941 76.966,55.966 79.490,55.998 76.476 C 56.029 73.462,56.029 68.472,55.998 65.387 C 55.967 62.302,55.941 64.768,55.941 70.867 M125.853 60.484 C 125.853 60.872,125.895 61.031,125.945 60.837 C 125.996 60.643,125.996 60.325,125.945 60.131 C 125.895 59.937,125.853 60.096,125.853 60.484 M136.135 62.298 C 136.135 62.686,136.177 62.845,136.228 62.651 C 136.278 62.457,136.278 62.140,136.228 61.946 C 136.177 61.752,136.135 61.910,136.135 62.298 M82.392 64.449 C 82.206 64.635,82.222 73.140,82.409 73.255 C 82.492 73.307,82.560 71.316,82.560 68.832 C 82.560 66.347,82.553 64.315,82.544 64.315 C 82.534 64.315,82.466 64.375,82.392 64.449 M135.316 65.514 C 135.198 65.852,135.145 66.129,135.197 66.129 C 135.333 66.129,135.713 65.082,135.614 64.982 C 135.568 64.936,135.434 65.176,135.316 65.514 M128.831 72.077 C 128.553 72.235,128.417 72.365,128.528 72.365 C 128.639 72.365,128.957 72.235,129.234 72.077 C 129.511 71.918,129.647 71.788,129.536 71.788 C 129.425 71.788,129.108 71.918,128.831 72.077 M358.735 79.587 C 363.373 79.617,370.903 79.617,375.469 79.587 C 380.035 79.556,376.240 79.532,367.036 79.532 C 357.833 79.532,354.097 79.556,358.735 79.587 M389.264 79.586 C 390.290 79.622,391.968 79.622,392.994 79.586 C 394.020 79.549,393.180 79.519,391.129 79.519 C 389.078 79.519,388.238 79.549,389.264 79.586 M395.565 84.577 C 395.565 86.929,395.639 88.306,395.766 88.306 C 395.893 88.306,395.968 86.929,395.968 84.577 C 395.968 82.224,395.893 80.847,395.766 80.847 C 395.639 80.847,395.565 82.224,395.565 84.577 M65.877 81.392 C 66.127 81.440,66.535 81.440,66.784 81.392 C 67.034 81.344,66.830 81.305,66.331 81.305 C 65.832 81.305,65.628 81.344,65.877 81.392 M50.353 82.978 C 49.599 83.387,49.645 83.557,50.403 83.165 C 50.736 82.993,51.008 82.810,51.008 82.757 C 51.008 82.627,50.986 82.634,50.353 82.978 M48.740 83.785 C 47.986 84.194,48.032 84.364,48.790 83.972 C 49.123 83.800,49.395 83.616,49.395 83.563 C 49.395 83.434,49.373 83.441,48.740 83.785 M49.950 86.406 C 49.196 86.815,49.242 86.985,50.000 86.593 C 50.333 86.421,50.605 86.237,50.605 86.184 C 50.605 86.055,50.583 86.062,49.950 86.406 M40.474 88.019 C 39.720 88.427,39.766 88.598,40.524 88.206 C 40.857 88.034,41.129 87.850,41.129 87.797 C 41.129 87.668,41.107 87.675,40.474 88.019 M225.353 90.272 C 252.104 90.300,295.880 90.300,322.631 90.272 C 349.383 90.244,327.495 90.221,273.992 90.221 C 220.489 90.221,198.601 90.244,225.353 90.272 M41.885 90.640 C 41.131 91.048,41.177 91.219,41.935 90.827 C 42.268 90.655,42.540 90.471,42.540 90.418 C 42.540 90.288,42.519 90.296,41.885 90.640 M105.542 118.448 C 105.542 133.639,105.565 139.824,105.595 132.192 C 105.624 124.560,105.624 112.130,105.595 104.571 C 105.565 97.012,105.542 103.256,105.542 118.448 M385.179 118.952 C 385.179 134.088,385.203 140.280,385.232 132.712 C 385.261 125.144,385.261 112.760,385.232 105.192 C 385.203 97.623,385.179 103.816,385.179 118.952 M178.318 98.236 C 178.265 98.374,178.245 102.389,178.274 107.157 L 178.327 115.827 178.428 106.905 C 178.483 101.998,178.503 97.984,178.471 97.984 C 178.440 97.984,178.371 98.097,178.318 98.236 M188.660 103.881 C 188.688 107.124,188.736 111.184,188.766 112.903 C 188.797 114.622,188.842 111.968,188.866 107.006 C 188.891 102.044,188.843 97.984,188.760 97.984 C 188.677 97.984,188.632 100.637,188.660 103.881 M258.558 98.241 C 258.504 98.383,258.484 100.356,258.514 102.626 L 258.569 106.754 258.670 102.369 C 258.768 98.073,258.759 97.719,258.558 98.241 M317.841 119.204 L 317.843 140.423 344.153 140.425 L 370.464 140.426 344.205 140.373 L 317.945 140.321 317.893 119.152 L 317.840 97.984 317.841 119.204 M241.833 119.254 L 241.835 140.423 247.077 140.429 L 252.319 140.434 247.128 140.375 L 241.937 140.316 241.885 119.200 L 241.832 98.085 241.833 119.254 M119.747 101.966 L 119.052 102.722 119.808 102.027 C 120.512 101.380,120.657 101.210,120.503 101.210 C 120.470 101.210,120.129 101.550,119.747 101.966 M93.178 106.561 C 92.840 107.302,92.905 107.461,93.270 106.787 C 93.440 106.472,93.542 106.177,93.496 106.131 C 93.450 106.084,93.307 106.278,93.178 106.561 M279.535 123.790 L 279.536 140.423 284.980 140.423 L 290.423 140.423 290.425 123.740 L 290.427 107.056 290.374 123.690 L 290.320 140.323 284.980 140.323 L 279.639 140.323 279.586 123.740 L 279.533 107.157 279.535 123.790 M126.940 109.383 C 126.871 109.563,126.829 110.270,126.847 110.954 L 126.880 112.198 127.008 110.685 C 127.146 109.061,127.136 108.873,126.940 109.383 M28.191 109.425 C 33.882 109.455,43.136 109.455,48.755 109.425 C 54.374 109.396,49.718 109.371,38.407 109.371 C 27.097 109.371,22.499 109.396,28.191 109.425 M116.398 110.887 C 116.398 111.719,116.434 112.059,116.478 111.643 C 116.521 111.227,116.521 110.547,116.478 110.131 C 116.434 109.715,116.398 110.055,116.398 110.887 M59.574 142.036 C 59.574 159.778,59.598 167.006,59.627 158.099 C 59.656 149.192,59.656 134.675,59.627 125.841 C 59.598 117.006,59.574 124.294,59.574 142.036 M89.750 114.222 C 89.413 114.964,89.477 115.122,89.842 114.448 C 90.013 114.133,90.115 113.838,90.069 113.792 C 90.023 113.746,89.879 113.939,89.750 114.222 M360.570 119.153 C 360.570 121.537,360.599 122.513,360.634 121.321 C 360.670 120.129,360.670 118.178,360.634 116.986 C 360.599 115.794,360.570 116.769,360.570 119.153 M233.926 116.331 C 233.926 116.830,233.965 117.034,234.013 116.784 C 234.061 116.535,234.061 116.127,234.013 115.877 C 233.965 115.628,233.926 115.832,233.926 116.331 M178.478 117.641 C 178.481 118.085,178.522 118.242,178.570 117.992 C 178.618 117.741,178.616 117.378,178.566 117.185 C 178.515 116.992,178.476 117.198,178.478 117.641 M168.448 118.548 C 168.994 119.103,169.486 119.556,169.541 119.556 C 169.597 119.556,169.195 119.103,168.649 118.548 C 168.103 117.994,167.611 117.540,167.555 117.540 C 167.500 117.540,167.901 117.994,168.448 118.548 M233.191 121.396 C 233.022 122.237,233.185 122.399,233.367 121.573 C 233.443 121.224,233.464 120.897,233.413 120.846 C 233.361 120.794,233.261 121.042,233.191 121.396 M135.519 123.740 C 139.697 123.770,146.592 123.770,150.842 123.740 C 155.092 123.709,151.673 123.685,143.246 123.685 C 134.819 123.685,131.342 123.709,135.519 123.740 M336.240 123.740 C 340.703 123.770,348.007 123.770,352.470 123.740 C 356.933 123.710,353.281 123.685,344.355 123.685 C 335.428 123.685,331.777 123.710,336.240 123.740 M193.338 126.663 C 193.833 127.190,194.264 127.621,194.296 127.621 C 194.447 127.621,194.287 127.440,193.397 126.604 L 192.440 125.706 193.338 126.663 M180.948 126.613 C 181.120 126.946,181.306 127.218,181.361 127.218 C 181.417 127.218,181.321 126.946,181.149 126.613 C 180.977 126.280,180.791 126.008,180.736 126.008 C 180.680 126.008,180.776 126.280,180.948 126.613 M161.556 127.621 C 161.556 128.342,161.593 128.637,161.638 128.276 C 161.683 127.916,161.683 127.326,161.638 126.966 C 161.593 126.605,161.556 126.900,161.556 127.621 M172.038 127.520 C 172.039 128.185,172.077 128.433,172.122 128.071 C 172.167 127.709,172.166 127.164,172.120 126.861 C 172.074 126.558,172.037 126.855,172.038 127.520 M159.375 131.156 C 159.042 131.309,158.912 131.438,159.084 131.443 C 159.257 131.448,159.575 131.318,159.790 131.156 C 160.268 130.794,160.166 130.794,159.375 131.156 M203.379 131.393 C 203.630 131.441,203.993 131.439,204.186 131.389 C 204.379 131.338,204.173 131.299,203.730 131.301 C 203.286 131.303,203.129 131.344,203.379 131.393 M208.115 131.389 C 208.309 131.440,208.627 131.440,208.821 131.389 C 209.015 131.338,208.856 131.297,208.468 131.297 C 208.080 131.297,207.921 131.338,208.115 131.389 M225.594 134.022 L 224.899 134.778 225.655 134.083 C 226.359 133.437,226.504 133.266,226.350 133.266 C 226.316 133.266,225.976 133.606,225.594 134.022 M168.566 136.569 L 168.079 137.198 168.656 136.649 C 168.973 136.348,169.192 136.065,169.143 136.021 C 169.093 135.976,168.833 136.223,168.566 136.569 M395.565 145.464 C 395.565 150.504,395.635 153.226,395.766 153.226 C 395.897 153.226,395.968 150.504,395.968 145.464 C 395.968 140.423,395.897 137.702,395.766 137.702 C 395.635 137.702,395.565 140.423,395.565 145.464 M96.857 142.641 C 96.856 144.526,96.887 145.325,96.924 144.415 C 96.961 143.506,96.961 141.963,96.924 140.988 C 96.887 140.012,96.857 140.756,96.857 142.641 M214.315 139.516 C 213.909 139.646,213.890 139.679,214.214 139.683 C 214.435 139.687,214.798 139.611,215.020 139.516 C 215.534 139.295,215.004 139.295,214.315 139.516 M128.695 140.474 C 134.553 140.503,144.079 140.503,149.864 140.474 C 155.650 140.444,150.857 140.420,139.214 140.420 C 127.571 140.420,122.837 140.444,128.695 140.474 M204.889 140.472 C 205.748 140.510,207.155 140.510,208.014 140.472 C 208.873 140.435,208.170 140.404,206.452 140.404 C 204.733 140.404,204.030 140.435,204.889 140.472 M176.663 147.127 C 214.781 147.155,277.155 147.155,315.272 147.127 C 353.390 147.099,322.203 147.076,245.968 147.076 C 169.733 147.076,138.546 147.099,176.663 147.127 M394.509 155.652 C 394.095 156.092,393.874 156.452,394.018 156.452 C 394.247 156.452,394.780 155.857,395.237 155.091 C 395.489 154.668,395.296 154.816,394.509 155.652 M389.401 158.766 C 389.187 158.927,389.103 159.061,389.214 159.063 C 389.513 159.068,390.025 158.708,389.899 158.582 C 389.838 158.521,389.614 158.604,389.401 158.766 M377.974 160.599 C 377.220 161.008,377.266 161.178,378.024 160.786 C 378.357 160.614,378.629 160.430,378.629 160.378 C 378.629 160.248,378.607 160.255,377.974 160.599 M385.030 161.026 C 384.836 161.077,384.677 161.194,384.677 161.286 C 384.677 161.379,384.859 161.407,385.081 161.349 C 385.302 161.291,385.484 161.163,385.484 161.065 C 385.484 160.967,385.461 160.898,385.433 160.910 C 385.406 160.923,385.224 160.975,385.030 161.026 M379.990 163.647 C 379.796 163.698,379.637 163.815,379.637 163.907 C 379.637 164.000,379.819 164.028,380.040 163.970 C 380.262 163.912,380.444 163.784,380.444 163.686 C 380.444 163.588,380.421 163.519,380.393 163.531 C 380.365 163.544,380.184 163.596,379.990 163.647 M376.895 165.423 C 376.483 165.735,376.675 165.792,377.305 165.545 C 377.530 165.457,377.607 165.338,377.486 165.263 C 377.371 165.192,377.105 165.264,376.895 165.423 M372.026 167.875 C 371.613 168.042,371.741 168.318,372.177 168.204 C 372.399 168.146,372.581 168.018,372.581 167.920 C 372.581 167.728,372.423 167.715,372.026 167.875 M369.304 169.415 C 368.999 169.536,368.750 169.699,368.750 169.778 C 368.750 170.003,369.517 169.746,369.776 169.434 C 369.904 169.280,369.975 169.163,369.934 169.175 C 369.893 169.186,369.609 169.295,369.304 169.415 M367.537 170.365 C 367.147 170.606,367.347 170.749,367.829 170.574 C 368.044 170.496,368.130 170.377,368.021 170.310 C 367.913 170.243,367.694 170.268,367.537 170.365 M361.139 173.722 C 360.689 173.904,360.873 174.140,361.389 174.042 C 361.665 173.989,361.841 173.865,361.780 173.767 C 361.661 173.574,361.529 173.565,361.139 173.722 M141.885 175.151 C 179.947 175.179,242.230 175.179,280.292 175.151 C 318.354 175.123,287.213 175.100,211.089 175.100 C 134.965 175.100,103.823 175.123,141.885 175.151 M358.417 175.262 C 358.112 175.382,357.863 175.606,357.863 175.758 C 357.863 175.959,358.029 175.917,358.468 175.605 C 358.950 175.262,359.284 174.910,359.022 175.021 C 358.994 175.033,358.722 175.141,358.417 175.262 M56.051 176.450 C 56.053 176.706,56.143 177.051,56.250 177.218 C 56.399 177.448,56.446 177.366,56.449 176.877 C 56.450 176.523,56.361 176.177,56.250 176.109 C 56.138 176.039,56.050 176.190,56.051 176.450 " stroke="none" fill="#848484" fill-rule="evenodd"></path><path id="path3" d="M114.159 30.997 L 134.468 31.050 134.528 35.334 L 134.588 39.617 134.583 35.282 L 134.577 30.948 114.214 30.946 L 93.851 30.945 114.159 30.997 M141.219 31.104 C 141.165 31.245,141.147 33.264,141.180 35.590 L 141.238 39.819 141.285 35.434 L 141.331 31.050 167.591 30.998 L 193.851 30.946 167.584 30.896 C 146.438 30.856,141.299 30.897,141.219 31.104 M172.831 56.599 L 172.782 73.179 167.490 73.236 L 162.198 73.293 167.496 73.340 C 171.585 73.376,172.817 73.330,172.891 73.135 C 172.944 72.996,172.963 65.489,172.934 56.452 L 172.881 40.020 172.831 56.599 M101.260 47.732 C 105.335 47.762,112.004 47.762,116.079 47.732 C 120.154 47.701,116.820 47.676,108.669 47.676 C 100.519 47.676,97.185 47.701,101.260 47.732 M92.692 64.466 C 98.264 64.495,107.382 64.495,112.954 64.466 C 118.526 64.436,113.967 64.412,102.823 64.412 C 91.678 64.412,87.119 64.436,92.692 64.466 M92.909 73.337 C 98.600 73.366,107.854 73.366,113.473 73.337 C 119.092 73.307,114.435 73.283,103.125 73.283 C 91.815 73.283,87.217 73.307,92.909 73.337 M103.175 81.603 C 123.052 81.631,155.577 81.631,175.454 81.603 C 195.330 81.574,179.068 81.551,139.315 81.551 C 99.561 81.551,83.299 81.574,103.175 81.603 M392.236 117.440 C 392.236 136.290,392.259 144.032,392.288 134.643 C 392.317 125.254,392.317 109.831,392.288 100.369 C 392.259 90.907,392.236 98.589,392.236 117.440 M233.963 106.855 C 233.963 111.678,233.990 113.652,234.022 111.240 C 234.054 108.828,234.054 104.882,234.022 102.470 C 233.990 100.058,233.963 102.031,233.963 106.855 M258.843 106.907 C 258.927 106.991,263.617 107.037,269.266 107.008 L 279.536 106.956 269.113 106.855 C 263.380 106.799,258.758 106.823,258.843 106.907 M139.784 107.006 C 145.419 107.036,154.583 107.036,160.146 107.006 C 165.710 106.976,161.099 106.952,149.899 106.952 C 138.700 106.952,134.148 106.976,139.784 107.006 M295.615 107.006 C 298.470 107.037,303.143 107.037,305.998 107.006 C 308.853 106.974,306.517 106.949,300.806 106.949 C 295.096 106.949,292.760 106.974,295.615 107.006 M328.114 107.113 C 328.059 107.256,328.042 109.047,328.075 111.095 L 328.135 114.819 328.180 110.938 L 328.226 107.058 349.446 107.006 L 370.665 106.954 349.439 106.904 C 332.325 106.864,328.194 106.905,328.114 107.113 M178.474 116.331 C 178.474 116.719,178.516 116.878,178.566 116.683 C 178.617 116.489,178.617 116.172,178.566 115.978 C 178.516 115.784,178.474 115.943,178.474 116.331 M328.108 127.520 C 328.108 129.627,328.138 130.462,328.175 129.375 C 328.211 128.288,328.211 126.564,328.174 125.544 C 328.138 124.524,328.108 125.413,328.108 127.520 M64.176 175.151 C 65.818 175.185,68.449 175.185,70.022 175.151 C 71.596 175.117,70.252 175.089,67.036 175.089 C 63.821 175.089,62.533 175.117,64.176 175.151 " stroke="none" fill="#9d9d9d" fill-rule="evenodd"></path><path id="path4" d="M60.429 13.855 C 60.787 13.900,61.422 13.900,61.840 13.857 C 62.259 13.813,61.966 13.777,61.190 13.776 C 60.413 13.775,60.071 13.811,60.429 13.855 M106.502 13.861 C 126.988 13.889,160.512 13.889,180.998 13.861 C 201.484 13.833,184.723 13.809,143.750 13.809 C 102.777 13.809,86.016 13.833,106.502 13.861 M222.460 17.843 C 222.460 19.506,222.491 20.160,222.529 19.295 C 222.567 18.431,222.567 17.070,222.529 16.271 C 222.490 15.472,222.459 16.179,222.460 17.843 M218.834 23.488 C 218.834 25.595,218.864 26.429,218.900 25.342 C 218.937 24.255,218.937 22.532,218.900 21.512 C 218.864 20.492,218.834 21.381,218.834 23.488 M108.836 24.345 C 113.307 24.375,120.565 24.375,124.965 24.345 C 129.364 24.314,125.706 24.290,116.835 24.290 C 107.964 24.290,104.364 24.314,108.836 24.345 M211.991 40.423 C 211.991 48.962,212.016 52.425,212.046 48.120 C 212.077 43.815,212.077 36.829,212.046 32.596 C 212.016 28.363,211.991 31.885,211.991 40.423 M64.202 31.452 C 64.202 34.723,64.230 36.061,64.264 34.425 C 64.298 32.790,64.298 30.113,64.264 28.478 C 64.230 26.842,64.202 28.180,64.202 31.452 M55.943 43.649 C 55.943 52.631,55.968 56.335,55.998 51.880 C 56.028 47.425,56.028 40.076,55.998 35.549 C 55.968 31.022,55.943 34.667,55.943 43.649 M193.836 35.383 C 193.836 37.823,193.865 38.793,193.901 37.539 C 193.936 36.286,193.936 34.290,193.900 33.104 C 193.865 31.918,193.836 32.944,193.836 35.383 M52.114 57.157 C 52.114 70.353,52.138 75.721,52.167 69.087 C 52.197 62.453,52.197 51.657,52.167 45.095 C 52.138 38.534,52.114 43.962,52.114 57.157 M162.193 56.552 C 162.193 65.756,162.218 69.551,162.248 64.985 C 162.278 60.419,162.278 52.889,162.248 48.251 C 162.218 43.613,162.193 47.349,162.193 56.552 M24.695 71.371 C 24.695 86.285,24.719 92.387,24.748 84.929 C 24.777 77.472,24.777 65.270,24.748 57.812 C 24.719 50.355,24.695 56.457,24.695 71.371 M18.042 78.327 C 18.042 95.292,18.066 102.203,18.095 93.684 C 18.124 85.164,18.124 71.283,18.095 62.837 C 18.066 54.391,18.042 61.361,18.042 78.327 M32.945 52.923 C 32.945 54.808,32.975 55.607,33.013 54.697 C 33.050 53.788,33.050 52.246,33.013 51.270 C 32.976 50.294,32.946 51.038,32.945 52.923 M132.258 51.071 C 132.258 51.106,132.553 51.401,132.913 51.726 L 133.569 52.319 132.976 51.663 C 132.424 51.053,132.258 50.915,132.258 51.071 M84.173 52.621 C 84.607 53.065,85.006 53.427,85.062 53.427 C 85.117 53.427,84.808 53.065,84.375 52.621 C 83.942 52.177,83.542 51.815,83.487 51.815 C 83.431 51.815,83.740 52.177,84.173 52.621 M92.188 56.389 C 92.382 56.440,92.699 56.440,92.893 56.389 C 93.087 56.338,92.928 56.297,92.540 56.297 C 92.152 56.297,91.993 56.338,92.188 56.389 M136.146 60.383 C 136.148 60.937,136.187 61.140,136.233 60.834 C 136.280 60.527,136.278 60.074,136.231 59.826 C 136.183 59.578,136.145 59.829,136.146 60.383 M126.055 60.484 C 126.055 60.872,126.096 61.031,126.147 60.837 C 126.198 60.643,126.198 60.325,126.147 60.131 C 126.096 59.937,126.055 60.096,126.055 60.484 M218.798 71.885 C 218.762 80.146,218.809 82.841,218.992 83.024 C 219.180 83.212,238.670 83.255,305.736 83.216 L 392.238 83.166 305.645 83.065 L 219.052 82.964 218.949 71.976 L 218.846 60.988 218.798 71.885 M82.546 68.851 C 82.546 71.290,82.575 72.261,82.610 71.007 C 82.646 69.753,82.646 67.757,82.610 66.571 C 82.574 65.386,82.545 66.411,82.546 68.851 M123.944 73.126 C 124.195 73.175,124.558 73.173,124.750 73.122 C 124.943 73.072,124.738 73.032,124.294 73.035 C 123.851 73.037,123.693 73.078,123.944 73.126 M56.125 79.234 C 56.125 80.509,56.157 81.031,56.197 80.393 C 56.237 79.756,56.237 78.712,56.197 78.075 C 56.157 77.437,56.125 77.959,56.125 79.234 M211.758 79.637 C 211.758 80.358,211.795 80.653,211.839 80.292 C 211.884 79.932,211.884 79.342,211.839 78.982 C 211.795 78.621,211.758 78.916,211.758 79.637 M255.091 79.587 C 272.583 79.615,301.207 79.615,318.700 79.587 C 336.192 79.558,321.880 79.535,286.895 79.535 C 251.910 79.535,237.598 79.558,255.091 79.587 M384.734 79.584 C 385.264 79.626,386.080 79.625,386.548 79.583 C 387.016 79.541,386.583 79.506,385.585 79.507 C 384.587 79.508,384.204 79.542,384.734 79.584 M66.179 81.591 C 66.373 81.641,66.691 81.641,66.885 81.591 C 67.079 81.540,66.920 81.498,66.532 81.498 C 66.144 81.498,65.985 81.540,66.179 81.591 M395.565 113.105 C 395.565 129.368,395.633 137.702,395.766 137.702 C 395.899 137.702,395.968 129.368,395.968 113.105 C 395.968 96.841,395.899 88.508,395.766 88.508 C 395.633 88.508,395.565 96.841,395.565 113.105 M123.942 90.071 C 133.727 90.099,149.740 90.099,159.526 90.071 C 169.312 90.042,161.305 90.018,141.734 90.018 C 122.162 90.018,114.156 90.042,123.942 90.071 M374.345 90.272 C 376.147 90.305,379.095 90.305,380.897 90.272 C 382.699 90.238,381.225 90.211,377.621 90.211 C 374.017 90.211,372.543 90.238,374.345 90.272 M149.542 98.135 L 170.153 98.187 170.214 102.471 L 170.274 106.754 170.268 102.419 L 170.262 98.085 149.597 98.083 L 128.931 98.082 149.542 98.135 M178.521 98.232 C 178.467 98.373,178.448 102.389,178.478 107.157 L 178.533 115.827 178.581 107.006 L 178.629 98.185 183.566 98.185 L 188.504 98.185 188.560 106.452 L 188.616 114.718 188.612 106.401 L 188.609 98.085 183.614 98.031 C 179.727 97.989,178.597 98.034,178.521 98.232 M226.473 98.135 C 227.894 98.169,230.162 98.169,231.514 98.134 C 232.866 98.100,231.704 98.071,228.931 98.071 C 226.159 98.071,225.053 98.100,226.473 98.135 M242.030 98.232 C 241.976 98.373,241.956 107.923,241.985 119.456 L 242.038 140.423 242.088 119.304 L 242.137 98.185 247.076 98.185 L 252.014 98.185 252.067 119.204 L 252.120 140.222 252.118 119.153 L 252.117 98.085 247.122 98.031 C 243.235 97.989,242.106 98.033,242.030 98.232 M258.760 98.241 C 258.705 98.383,258.687 100.356,258.720 102.626 L 258.779 106.754 258.825 102.470 L 258.871 98.185 285.088 98.185 L 311.306 98.185 311.248 102.510 C 311.216 104.889,311.259 106.765,311.345 106.680 C 311.430 106.594,311.476 104.625,311.446 102.304 L 311.391 98.085 285.125 98.034 C 263.925 97.992,258.840 98.032,258.760 98.241 M331.114 98.135 C 338.414 98.164,350.299 98.164,357.526 98.135 C 364.753 98.106,358.780 98.082,344.254 98.082 C 329.728 98.082,323.815 98.106,331.114 98.135 M223.681 107.157 C 223.682 112.147,223.708 114.160,223.740 111.629 C 223.772 109.099,223.772 105.016,223.740 102.557 C 223.708 100.097,223.681 102.167,223.681 107.157 M279.637 123.649 L 279.738 140.423 279.789 123.802 C 279.818 114.660,279.772 107.111,279.689 107.027 C 279.605 106.944,279.582 114.423,279.637 123.649 M116.587 109.476 C 116.587 109.975,116.626 110.179,116.675 109.929 C 116.723 109.680,116.723 109.272,116.675 109.022 C 116.626 108.773,116.587 108.977,116.587 109.476 M52.571 109.223 C 53.707 109.259,55.567 109.259,56.704 109.223 C 57.840 109.187,56.910 109.158,54.637 109.158 C 52.364 109.158,51.434 109.187,52.571 109.223 M126.664 110.786 C 126.666 111.230,126.707 111.388,126.755 111.137 C 126.804 110.886,126.802 110.523,126.751 110.330 C 126.701 110.138,126.662 110.343,126.664 110.786 M116.587 112.298 C 116.587 112.797,116.626 113.002,116.675 112.752 C 116.723 112.503,116.723 112.094,116.675 111.845 C 116.626 111.595,116.587 111.799,116.587 112.298 M188.761 116.835 C 188.763 117.278,188.804 117.436,188.852 117.185 C 188.900 116.934,188.899 116.571,188.848 116.379 C 188.798 116.186,188.758 116.391,188.761 116.835 M135.751 123.538 C 139.945 123.569,146.749 123.569,150.872 123.538 C 154.994 123.508,151.563 123.483,143.246 123.483 C 134.929 123.483,131.557 123.508,135.751 123.538 M328.156 123.538 C 328.071 123.675,339.464 123.674,354.738 123.535 C 357.954 123.506,353.309 123.460,344.417 123.434 C 335.525 123.408,328.208 123.455,328.156 123.538 M171.848 127.520 C 171.848 128.629,171.882 129.057,171.923 128.471 C 171.964 127.885,171.963 126.978,171.922 126.455 C 171.881 125.932,171.847 126.411,171.848 127.520 M328.196 131.503 C 328.280 131.587,337.870 131.632,349.507 131.604 L 370.665 131.552 349.355 131.452 C 337.634 131.396,328.113 131.419,328.196 131.503 M118.277 131.603 C 118.192 131.740,132.455 131.739,151.512 131.600 C 155.504 131.571,149.680 131.526,138.570 131.499 C 127.460 131.473,118.328 131.520,118.277 131.603 M205.192 131.599 C 205.663 131.642,206.434 131.642,206.905 131.599 C 207.377 131.557,206.991 131.522,206.048 131.522 C 205.106 131.522,204.720 131.557,205.192 131.599 M208.518 140.260 C 208.712 140.311,209.030 140.311,209.224 140.260 C 209.418 140.209,209.259 140.168,208.871 140.168 C 208.483 140.168,208.324 140.209,208.518 140.260 M97.031 147.581 C 97.031 148.080,97.070 148.284,97.118 148.034 C 97.166 147.785,97.166 147.377,97.118 147.127 C 97.070 146.878,97.031 147.082,97.031 147.581 M176.546 147.329 C 214.599 147.357,276.927 147.357,315.054 147.329 C 353.181 147.301,322.046 147.278,245.867 147.278 C 169.687 147.278,138.493 147.301,176.546 147.329 " stroke="none" fill="#bcbcbc" fill-rule="evenodd"></path></g></svg>