<svg width="27" height="20" viewBox="0 0 27 20" fill="none" xmlns="http://www.w3.org/2000/svg">
<path d="M1.69535 11.5478L3.42103 11.9408L4.72004 10.0676L2.25117 9.50717C1.95651 9.43948 1.64465 9.48206 1.38418 9.62554C1.12371 9.76902 0.935973 10.0017 0.862268 10.2723C0.788563 10.5429 0.834927 10.8293 0.991161 11.0685C1.14739 11.3077 1.4007 11.4801 1.69535 11.5478ZM24.2203 11.8513L18.5698 16.521L11.9266 11.799C11.7998 11.7095 11.6541 11.6453 11.4987 11.6106L10.615 11.4083L9.31468 13.2815L10.7074 13.5989L17.9203 18.7244C18.1344 18.8758 18.3995 18.9537 18.6695 18.9445C18.9396 18.9354 19.1976 18.8398 19.3991 18.6744L25.765 13.4106C25.8771 13.3183 25.9681 13.2066 26.0329 13.0818C26.0977 12.957 26.135 12.8217 26.1425 12.6837C26.15 12.5456 26.1277 12.4075 26.0768 12.2774C26.0259 12.1474 25.9475 12.0278 25.846 11.9257C25.6406 11.7187 25.3544 11.5947 25.0499 11.5807C24.7453 11.5668 24.4471 11.664 24.2203 11.8513ZM11.8165 6.72118L18.0038 10.3595C18.2552 10.507 18.5589 10.5597 18.8514 10.5064C19.144 10.4531 19.4029 10.2979 19.5738 10.0734L25.9384 1.65267C26.0246 1.53904 26.0854 1.41085 26.1174 1.27552C26.1493 1.14018 26.1517 1.00038 26.1246 0.864169C26.0974 0.727961 26.0411 0.598046 25.9589 0.481921C25.8768 0.365797 25.7704 0.265761 25.646 0.187587C25.3949 0.0282574 25.0852 -0.0330678 24.7849 0.017072C24.4847 0.0672118 24.2183 0.22472 24.0444 0.455024L18.3115 8.03743L12.0874 4.3782C11.8291 4.22655 11.5159 4.17512 11.2163 4.23518C10.9179 4.29641 10.658 4.46362 10.4934 4.70029L1.00154 18.3826C0.890233 18.5417 0.827803 18.7255 0.820844 18.9145C0.813884 19.1036 0.862654 19.2908 0.961999 19.4565C1.06134 19.6222 1.20758 19.7602 1.38524 19.8558C1.56291 19.9515 1.76542 20.0013 1.97136 20C2.16512 20.0004 2.35585 19.9559 2.52585 19.8705C2.69584 19.7851 2.83959 19.6617 2.94372 19.5116L11.8165 6.72118Z" fill="white"/>
</svg>
