<svg id="settings" width="39" height="41" viewBox="0 0 39 41" fill="none" xmlns="http://www.w3.org/2000/svg">
<path d="M19.0091 41.0002C29.5076 41.0002 38.0183 31.822 38.0183 20.5001C38.0183 9.17821 29.5076 0 19.0091 0C8.51068 0 0 9.17821 0 20.5001C0 31.822 8.51068 41.0002 19.0091 41.0002Z" fill="#53ACFF"/>
<path fill-rule="evenodd" clip-rule="evenodd" d="M14.298 25.6033L24.0917 25.742V34.3123L14.306 34.232L14.298 25.6033Z" fill="#FFEBC8"/>
<path fill-rule="evenodd" clip-rule="evenodd" d="M32.8982 34.494C31.1219 36.5497 28.9718 38.1885 26.582 39.3079C24.1922 40.4274 21.614 41.0035 19.0085 41.0004C18.2195 41.0003 17.4312 40.9478 16.6481 40.8431C14.236 40.5213 11.9043 39.7004 9.78077 38.4256C7.97272 37.3405 6.34026 35.9457 4.94727 34.2957L5.73716 32.239L14.3036 28.1178C14.3036 31.1264 15.4355 32.1992 19.2066 32.2603C23.8636 32.3352 24.0912 31.1948 24.0912 28.0939L31.9594 32.2609L32.8982 34.494Z" fill="#F7DA75"/>
<path opacity="0.11" fill-rule="evenodd" clip-rule="evenodd" d="M24.0936 25.7267V27.9851C22.4018 31.2452 15.481 31.3009 14.298 25.6033L24.0936 25.7267Z" fill="black"/>
<path fill-rule="evenodd" clip-rule="evenodd" d="M19.1497 5.59412C32.2415 5.59412 27.1391 28.9909 19.1497 28.9909C11.6033 28.9909 6.05799 5.59412 19.1497 5.59412Z" fill="#FFEBC8"/>
<path fill-rule="evenodd" clip-rule="evenodd" d="M11.2975 15.9523C9.40884 16.8413 11.0145 21.0521 12.203 21.0329C11.7101 19.3855 11.406 17.6793 11.2975 15.9523Z" fill="#F9DCA4"/>
<path fill-rule="evenodd" clip-rule="evenodd" d="M27.154 15.9523C29.0426 16.8406 27.4369 21.0521 26.249 21.0329C26.7416 19.3855 27.0455 17.6793 27.154 15.9523Z" fill="#F9DCA4"/>
<path fill-rule="evenodd" clip-rule="evenodd" d="M26.7041 19.6271C26.7041 19.6271 27.3599 13.8446 25.4645 11.8304C24.6401 14.171 20.8494 14.9705 20.8494 14.9705C21.5854 14.4153 22.2504 13.7579 22.8272 13.0153C21.8109 13.4897 18.5972 14.9114 15.6849 13.7856C16.4772 13.2705 17.2222 12.6754 17.91 12.0082C17.91 12.0082 15.2727 13.5487 12.7179 13.1639C10.8779 14.6447 11.6967 19.2423 11.6967 19.2423C9.22731 12.2185 11.5017 4.17701 19.3102 4.13057C26.9126 4.08479 29.2583 11.9903 26.7041 19.6271Z" fill="#202020"/>
<path fill-rule="evenodd" clip-rule="evenodd" d="M14.3059 27.983C15.5028 29.9062 17.2086 31.3963 19.2015 32.2595L16.0137 35.8083L11.959 29.1049L14.3059 27.983Z" fill="white"/>
<path fill-rule="evenodd" clip-rule="evenodd" d="M24.09 27.983C22.8931 29.9061 21.1872 31.3963 19.1943 32.2595L22.3816 35.8083L26.4369 29.1056L24.09 27.983Z" fill="white"/>
<path fill-rule="evenodd" clip-rule="evenodd" d="M20.5265 40.9341C20.0184 40.977 19.5049 40.9986 18.9861 40.9991C18.5948 40.9991 18.2062 40.9867 17.8203 40.9619L18.4546 35.1522H19.9372L20.5265 40.9341Z" fill="#3DBC93"/>
<path fill-rule="evenodd" clip-rule="evenodd" d="M17.5156 34.1377L19.1994 32.2688L20.8825 34.1377L19.1994 36.0066L17.5156 34.1377Z" fill="#3DBC93"/>
</svg>
