<svg id="settings" width="31" height="26" viewBox="0 0 31 26" fill="none" xmlns="http://www.w3.org/2000/svg">
<path d="M17.8226 17.0207L16.3527 16.695C16.3379 15.7056 16.126 14.7503 15.7234 13.8552L16.8603 12.9345C17.1309 12.7154 17.1725 12.3184 16.9537 12.0476L15.5282 10.287C15.4229 10.1568 15.2703 10.0742 15.1039 10.0565C14.9383 10.0386 14.7709 10.0887 14.641 10.1937L13.534 11.091C12.7502 10.4897 11.8702 10.0635 10.9181 9.82385V8.41829C10.9181 8.07021 10.6356 7.7877 10.2875 7.7877H8.02274C7.67466 7.7877 7.39216 8.07021 7.39216 8.41829V9.8248C6.42107 10.0698 5.52501 10.5093 4.7289 11.1314L3.61119 10.2422C3.48035 10.1382 3.31482 10.0912 3.14709 10.1092C2.98093 10.1281 2.82896 10.2123 2.72491 10.3435L1.31493 12.1163C1.09801 12.3887 1.14341 12.7857 1.41582 13.0023L2.56411 13.9154C2.17 14.8133 1.96664 15.769 1.96002 16.7562L0.488869 17.096C0.149616 17.1749 -0.061944 17.5128 0.0162481 17.8521L0.525758 20.0595C0.604266 20.399 0.943519 20.6103 1.28214 20.5321L2.79964 20.1818C3.25019 21.0274 3.85397 21.7639 4.59396 22.3709L3.90978 23.8054C3.7597 24.1198 3.89275 24.4959 4.20709 24.646L6.25144 25.6218C6.33688 25.6625 6.42989 25.683 6.52291 25.683C6.59416 25.683 6.6651 25.671 6.73352 25.647C6.89117 25.5909 7.02012 25.4752 7.09232 25.3242L7.78533 23.8704C8.70693 24.0479 9.66636 24.045 10.5848 23.8603L11.2898 25.3056C11.4424 25.619 11.8211 25.7479 12.1332 25.5963L14.1687 24.6037C14.4815 24.4511 14.6117 24.0734 14.4591 23.7607L13.7636 22.3343C14.4998 21.7207 15.0976 20.9782 15.5415 20.1276L17.0587 20.464C17.3979 20.5387 17.7353 20.3249 17.8106 19.9844L18.3015 17.773C18.3375 17.6096 18.3078 17.4384 18.2174 17.2975C18.1278 17.1563 17.9859 17.0566 17.8226 17.0207ZM11.9358 16.8041C11.9358 18.3361 10.6895 19.5824 9.15716 19.5824C7.62548 19.5824 6.37913 18.3361 6.37913 16.8041C6.37913 15.2721 7.62516 14.0257 9.15716 14.0257C10.6895 14.026 11.9358 15.2721 11.9358 16.8041Z" fill="#5D5D5D"/>
<path d="M19.5301 11.6219C19.7653 11.6219 19.9914 11.4895 20.0999 11.2628L20.4322 10.5667C21.0079 10.678 21.6098 10.6754 22.1824 10.56L22.5197 11.2521C22.672 11.5649 23.05 11.6951 23.3631 11.5425L24.2116 11.1285C24.362 11.0551 24.477 10.9248 24.5316 10.7669C24.5858 10.6089 24.5754 10.4355 24.5016 10.2851L24.1696 9.60566C24.6293 9.2229 25.0039 8.75879 25.2817 8.22564L25.9999 8.38454C26.3385 8.45958 26.6765 8.24518 26.7522 7.9053L26.9559 6.9837C27.0309 6.64382 26.8168 6.30709 26.4763 6.23174L25.7877 6.07913C25.7789 5.46053 25.6461 4.86306 25.3942 4.30342L25.9217 3.8762C26.0516 3.77089 26.1345 3.61829 26.1516 3.45213C26.1692 3.28597 26.1194 3.11918 26.0141 2.98928L25.4201 2.2556C25.2003 1.98477 24.8031 1.94346 24.5332 2.16259L24.0243 2.57468C23.5343 2.19853 22.9841 1.93211 22.3886 1.78235V1.13916C22.3886 0.791076 22.1061 0.508575 21.758 0.508575H20.814C20.4659 0.508575 20.1834 0.791076 20.1834 1.13916V1.78235C19.5758 1.93558 19.0159 2.21052 18.5187 2.59958L18.0035 2.19034C17.7317 1.97373 17.3351 2.01913 17.1175 2.29123L16.5308 3.03059C16.4267 3.16175 16.3791 3.32854 16.3977 3.4947C16.4169 3.66085 16.5008 3.81282 16.632 3.91687L17.1645 4.34094C16.9186 4.90184 16.7912 5.49995 16.7871 6.11792L16.0972 6.27714C15.9339 6.31466 15.793 6.41555 15.7044 6.55743C15.6158 6.69931 15.5871 6.87051 15.6249 7.03352L15.8378 7.95354C15.9163 8.29279 16.2549 8.50435 16.5938 8.42584L17.3124 8.25969C17.5939 8.78811 17.9713 9.24875 18.4348 9.62899L18.1085 10.3132C18.0363 10.4642 18.0275 10.6373 18.0833 10.7949C18.1394 10.9526 18.2554 11.0819 18.4061 11.1537L19.258 11.5602C19.3466 11.6018 19.439 11.6219 19.5301 11.6219ZM19.5513 6.14724C19.5513 5.18907 20.331 4.40998 21.2891 4.40998C22.247 4.40998 23.0264 5.18938 23.0264 6.14724C23.0264 7.10541 22.247 7.88481 21.2891 7.88481C20.3307 7.88481 19.5513 7.10541 19.5513 6.14724Z" fill="#5D5D5D"/>
<path d="M29.5694 18.2796L28.8814 18.1273C28.8726 17.5091 28.7399 16.9116 28.4873 16.3516L29.0154 15.9244C29.1453 15.8191 29.2283 15.6665 29.2456 15.5C29.2629 15.3335 29.2131 15.1668 29.1078 15.0372L28.5135 14.3035C28.2944 14.0327 27.8968 13.9914 27.6266 14.2105L27.118 14.6226C26.6274 14.2464 26.0776 13.98 25.4823 13.8302V13.1874C25.4823 12.8393 25.1998 12.5568 24.8517 12.5568H23.9077C23.5596 12.5568 23.2771 12.8393 23.2771 13.1874V13.8309C22.6689 13.9838 22.1087 14.259 21.6121 14.6481L21.0972 14.2389C20.9664 14.1345 20.8015 14.0869 20.6331 14.1058C20.467 14.125 20.315 14.2086 20.2109 14.3397L19.6236 15.0785C19.4066 15.3509 19.452 15.7478 19.7244 15.9651L20.2576 16.3888C20.011 16.9516 19.8834 17.5494 19.8796 18.1661L19.1897 18.3253C19.0267 18.3632 18.8855 18.4634 18.7969 18.6059C18.7086 18.7475 18.6796 18.9187 18.7174 19.082L18.9302 20.0021C19.0087 20.3413 19.3486 20.5519 19.686 20.4744L20.4052 20.3085C20.6867 20.8373 21.0641 21.2979 21.527 21.6778L21.201 22.3614C21.1288 22.5124 21.1196 22.6858 21.1754 22.8435C21.2319 23.0011 21.3476 23.1301 21.4983 23.2023L22.3502 23.6087C22.4375 23.6503 22.5302 23.6702 22.621 23.6702C22.8562 23.6702 23.0826 23.5377 23.1908 23.3107L23.5231 22.6149C24.0994 22.7262 24.7019 22.7243 25.2736 22.6083L25.6112 23.2997C25.7638 23.6125 26.1416 23.743 26.4546 23.5904L27.3028 23.1767C27.4532 23.1036 27.5683 22.9734 27.6225 22.8154C27.677 22.6574 27.6669 22.484 27.5932 22.3336L27.2615 21.6542C27.7215 21.2711 28.0954 20.8067 28.3726 20.2742L29.0908 20.4337C29.2547 20.4699 29.4253 20.44 29.5663 20.3495C29.7072 20.2596 29.8068 20.1178 29.8431 19.9541L30.0471 19.0325C30.1243 18.6917 29.9096 18.3553 29.5694 18.2796ZM26.1189 18.1954C26.1189 19.1536 25.3395 19.933 24.3819 19.933C23.4241 19.933 22.644 19.1536 22.644 18.1954C22.644 17.2373 23.4241 16.4579 24.3819 16.4579C25.3395 16.4582 26.1189 17.2376 26.1189 18.1954Z" fill="#5D5D5D"/>
</svg>
